<mxfile host="app.diagrams.net" modified="2023-06-10T12:35:04.056Z" agent="Mozilla/5.0 (Windows NT 10.0; Win64; x64) AppleWebKit/537.36 (KHTML, like Gecko) Chrome/113.0.0.0 Safari/537.36 OPR/99.0.0.0" etag="qHttYWo66-F1RUvkAcZy" version="21.3.8" type="device">
  <diagram id="C5RBs43oDa-KdzZeNtuy" name="Page-1">
    <mxGraphModel dx="1908" dy="1220" grid="1" gridSize="10" guides="1" tooltips="1" connect="1" arrows="1" fold="1" page="1" pageScale="1" pageWidth="827" pageHeight="950" math="0" shadow="0">
      <root>
        <mxCell id="WIyWlLk6GJQsqaUBKTNV-0" />
        <mxCell id="WIyWlLk6GJQsqaUBKTNV-1" parent="WIyWlLk6GJQsqaUBKTNV-0" />
        <mxCell id="zkfFHV4jXpPFQw0GAbJ--0" value="App" style="swimlane;fontStyle=0;align=center;verticalAlign=top;childLayout=stackLayout;horizontal=1;startSize=26;horizontalStack=0;resizeParent=1;resizeLast=0;collapsible=1;marginBottom=0;rounded=0;shadow=0;strokeWidth=1;" parent="WIyWlLk6GJQsqaUBKTNV-1" vertex="1">
          <mxGeometry x="10" y="70" width="180" height="40" as="geometry">
            <mxRectangle x="230" y="140" width="160" height="26" as="alternateBounds" />
          </mxGeometry>
        </mxCell>
        <mxCell id="zkfFHV4jXpPFQw0GAbJ--6" value="System.Windows.Application" style="swimlane;fontStyle=0;align=center;verticalAlign=top;childLayout=stackLayout;horizontal=1;startSize=26;horizontalStack=0;resizeParent=1;resizeLast=0;collapsible=1;marginBottom=0;rounded=0;shadow=0;strokeWidth=1;" parent="WIyWlLk6GJQsqaUBKTNV-1" vertex="1">
          <mxGeometry x="10" y="10" width="180" height="40" as="geometry">
            <mxRectangle x="130" y="380" width="160" height="26" as="alternateBounds" />
          </mxGeometry>
        </mxCell>
        <mxCell id="zkfFHV4jXpPFQw0GAbJ--12" value="" style="endArrow=block;endSize=10;endFill=0;shadow=0;strokeWidth=1;rounded=0;edgeStyle=elbowEdgeStyle;elbow=vertical;" parent="WIyWlLk6GJQsqaUBKTNV-1" source="zkfFHV4jXpPFQw0GAbJ--6" target="zkfFHV4jXpPFQw0GAbJ--0" edge="1">
          <mxGeometry width="160" relative="1" as="geometry">
            <mxPoint x="200" y="203" as="sourcePoint" />
            <mxPoint x="200" y="203" as="targetPoint" />
          </mxGeometry>
        </mxCell>
        <mxCell id="zkfFHV4jXpPFQw0GAbJ--13" value="System.Windows.Window" style="swimlane;fontStyle=0;align=center;verticalAlign=top;childLayout=stackLayout;horizontal=1;startSize=26;horizontalStack=0;resizeParent=1;resizeLast=0;collapsible=1;marginBottom=0;rounded=0;shadow=0;strokeWidth=1;" parent="WIyWlLk6GJQsqaUBKTNV-1" vertex="1">
          <mxGeometry x="10" y="130" width="180" height="40" as="geometry">
            <mxRectangle x="340" y="380" width="170" height="26" as="alternateBounds" />
          </mxGeometry>
        </mxCell>
        <mxCell id="zkfFHV4jXpPFQw0GAbJ--16" value="" style="endArrow=block;endSize=10;endFill=0;shadow=0;strokeWidth=1;rounded=0;edgeStyle=elbowEdgeStyle;elbow=vertical;" parent="WIyWlLk6GJQsqaUBKTNV-1" source="zkfFHV4jXpPFQw0GAbJ--13" target="zkfFHV4jXpPFQw0GAbJ--17" edge="1">
          <mxGeometry width="160" relative="1" as="geometry">
            <mxPoint x="210" y="373" as="sourcePoint" />
            <mxPoint x="310" y="271" as="targetPoint" />
          </mxGeometry>
        </mxCell>
        <mxCell id="Zo6a3CAOfv0OzH-kGhj1-48" style="edgeStyle=orthogonalEdgeStyle;rounded=0;orthogonalLoop=1;jettySize=auto;html=1;strokeWidth=3;endArrow=none;endFill=0;" parent="WIyWlLk6GJQsqaUBKTNV-1" source="zkfFHV4jXpPFQw0GAbJ--17" target="Zo6a3CAOfv0OzH-kGhj1-10" edge="1">
          <mxGeometry relative="1" as="geometry">
            <Array as="points">
              <mxPoint x="410" y="133" />
              <mxPoint x="410" y="133" />
            </Array>
          </mxGeometry>
        </mxCell>
        <mxCell id="zkfFHV4jXpPFQw0GAbJ--17" value="MainWindow" style="swimlane;fontStyle=0;align=center;verticalAlign=top;childLayout=stackLayout;horizontal=1;startSize=26;horizontalStack=0;resizeParent=1;resizeLast=0;collapsible=1;marginBottom=0;rounded=0;shadow=0;strokeWidth=1;" parent="WIyWlLk6GJQsqaUBKTNV-1" vertex="1">
          <mxGeometry x="211" y="78" width="160" height="86" as="geometry">
            <mxRectangle x="550" y="140" width="160" height="26" as="alternateBounds" />
          </mxGeometry>
        </mxCell>
        <mxCell id="zkfFHV4jXpPFQw0GAbJ--24" value="+MainWindow()" style="text;align=left;verticalAlign=top;spacingLeft=4;spacingRight=4;overflow=hidden;rotatable=0;points=[[0,0.5],[1,0.5]];portConstraint=eastwest;" parent="zkfFHV4jXpPFQw0GAbJ--17" vertex="1">
          <mxGeometry y="26" width="160" height="26" as="geometry" />
        </mxCell>
        <mxCell id="zkfFHV4jXpPFQw0GAbJ--25" value="- Window_Closing()" style="text;align=left;verticalAlign=top;spacingLeft=4;spacingRight=4;overflow=hidden;rotatable=0;points=[[0,0.5],[1,0.5]];portConstraint=eastwest;" parent="zkfFHV4jXpPFQw0GAbJ--17" vertex="1">
          <mxGeometry y="52" width="160" height="26" as="geometry" />
        </mxCell>
        <mxCell id="Zo6a3CAOfv0OzH-kGhj1-9" value="" style="endArrow=block;endSize=10;endFill=0;shadow=0;strokeWidth=1;rounded=0;edgeStyle=elbowEdgeStyle;elbow=vertical;" parent="WIyWlLk6GJQsqaUBKTNV-1" source="zkfFHV4jXpPFQw0GAbJ--0" target="zkfFHV4jXpPFQw0GAbJ--17" edge="1">
          <mxGeometry width="160" relative="1" as="geometry">
            <mxPoint x="200" y="80" as="sourcePoint" />
            <mxPoint x="538" y="80" as="targetPoint" />
          </mxGeometry>
        </mxCell>
        <mxCell id="Zo6a3CAOfv0OzH-kGhj1-10" value="RFIDProducerColleection" style="swimlane;fontStyle=0;align=center;verticalAlign=top;childLayout=stackLayout;horizontal=1;startSize=26;horizontalStack=0;resizeParent=1;resizeLast=0;collapsible=1;marginBottom=0;rounded=0;shadow=0;strokeWidth=1;" parent="WIyWlLk6GJQsqaUBKTNV-1" vertex="1">
          <mxGeometry x="660" y="10" width="160" height="268" as="geometry">
            <mxRectangle x="550" y="140" width="160" height="26" as="alternateBounds" />
          </mxGeometry>
        </mxCell>
        <mxCell id="Zo6a3CAOfv0OzH-kGhj1-11" value="- nextID : int = 0" style="text;align=left;verticalAlign=top;spacingLeft=4;spacingRight=4;overflow=hidden;rotatable=0;points=[[0,0.5],[1,0.5]];portConstraint=eastwest;" parent="Zo6a3CAOfv0OzH-kGhj1-10" vertex="1">
          <mxGeometry y="26" width="160" height="26" as="geometry" />
        </mxCell>
        <mxCell id="Zo6a3CAOfv0OzH-kGhj1-16" value="" style="line;html=1;strokeWidth=1;align=left;verticalAlign=middle;spacingTop=-1;spacingLeft=3;spacingRight=3;rotatable=0;labelPosition=right;points=[];portConstraint=eastwest;" parent="Zo6a3CAOfv0OzH-kGhj1-10" vertex="1">
          <mxGeometry y="52" width="160" height="8" as="geometry" />
        </mxCell>
        <mxCell id="Zo6a3CAOfv0OzH-kGhj1-17" value="+ LoadXml()" style="text;align=left;verticalAlign=top;spacingLeft=4;spacingRight=4;overflow=hidden;rotatable=0;points=[[0,0.5],[1,0.5]];portConstraint=eastwest;" parent="Zo6a3CAOfv0OzH-kGhj1-10" vertex="1">
          <mxGeometry y="60" width="160" height="26" as="geometry" />
        </mxCell>
        <mxCell id="Zo6a3CAOfv0OzH-kGhj1-18" value="+ SaveXml()" style="text;align=left;verticalAlign=top;spacingLeft=4;spacingRight=4;overflow=hidden;rotatable=0;points=[[0,0.5],[1,0.5]];portConstraint=eastwest;" parent="Zo6a3CAOfv0OzH-kGhj1-10" vertex="1">
          <mxGeometry y="86" width="160" height="26" as="geometry" />
        </mxCell>
        <mxCell id="Zo6a3CAOfv0OzH-kGhj1-51" value="+ AppendNew()" style="text;align=left;verticalAlign=top;spacingLeft=4;spacingRight=4;overflow=hidden;rotatable=0;points=[[0,0.5],[1,0.5]];portConstraint=eastwest;" parent="Zo6a3CAOfv0OzH-kGhj1-10" vertex="1">
          <mxGeometry y="112" width="160" height="26" as="geometry" />
        </mxCell>
        <mxCell id="Zo6a3CAOfv0OzH-kGhj1-53" value="+ SelectAll()" style="text;align=left;verticalAlign=top;spacingLeft=4;spacingRight=4;overflow=hidden;rotatable=0;points=[[0,0.5],[1,0.5]];portConstraint=eastwest;" parent="Zo6a3CAOfv0OzH-kGhj1-10" vertex="1">
          <mxGeometry y="138" width="160" height="26" as="geometry" />
        </mxCell>
        <mxCell id="Zo6a3CAOfv0OzH-kGhj1-52" value="+ SelectNone()" style="text;align=left;verticalAlign=top;spacingLeft=4;spacingRight=4;overflow=hidden;rotatable=0;points=[[0,0.5],[1,0.5]];portConstraint=eastwest;" parent="Zo6a3CAOfv0OzH-kGhj1-10" vertex="1">
          <mxGeometry y="164" width="160" height="26" as="geometry" />
        </mxCell>
        <mxCell id="Zo6a3CAOfv0OzH-kGhj1-54" value="+ StartSelected()" style="text;align=left;verticalAlign=top;spacingLeft=4;spacingRight=4;overflow=hidden;rotatable=0;points=[[0,0.5],[1,0.5]];portConstraint=eastwest;" parent="Zo6a3CAOfv0OzH-kGhj1-10" vertex="1">
          <mxGeometry y="190" width="160" height="26" as="geometry" />
        </mxCell>
        <mxCell id="Zo6a3CAOfv0OzH-kGhj1-55" value="+ StopSelected()" style="text;align=left;verticalAlign=top;spacingLeft=4;spacingRight=4;overflow=hidden;rotatable=0;points=[[0,0.5],[1,0.5]];portConstraint=eastwest;" parent="Zo6a3CAOfv0OzH-kGhj1-10" vertex="1">
          <mxGeometry y="216" width="160" height="26" as="geometry" />
        </mxCell>
        <mxCell id="Zo6a3CAOfv0OzH-kGhj1-56" value="+ RemoveSelected()" style="text;align=left;verticalAlign=top;spacingLeft=4;spacingRight=4;overflow=hidden;rotatable=0;points=[[0,0.5],[1,0.5]];portConstraint=eastwest;" parent="Zo6a3CAOfv0OzH-kGhj1-10" vertex="1">
          <mxGeometry y="242" width="160" height="26" as="geometry" />
        </mxCell>
        <mxCell id="Zo6a3CAOfv0OzH-kGhj1-39" value="RFIDProducer" style="swimlane;fontStyle=0;align=center;verticalAlign=top;childLayout=stackLayout;horizontal=1;startSize=26;horizontalStack=0;resizeParent=1;resizeLast=0;collapsible=1;marginBottom=0;rounded=0;shadow=0;strokeWidth=1;" parent="WIyWlLk6GJQsqaUBKTNV-1" vertex="1">
          <mxGeometry x="10" y="192" width="180" height="632" as="geometry">
            <mxRectangle x="550" y="140" width="160" height="26" as="alternateBounds" />
          </mxGeometry>
        </mxCell>
        <mxCell id="Zo6a3CAOfv0OzH-kGhj1-40" value="- name : string" style="text;align=left;verticalAlign=top;spacingLeft=4;spacingRight=4;overflow=hidden;rotatable=0;points=[[0,0.5],[1,0.5]];portConstraint=eastwest;" parent="Zo6a3CAOfv0OzH-kGhj1-39" vertex="1">
          <mxGeometry y="26" width="180" height="26" as="geometry" />
        </mxCell>
        <mxCell id="Zo6a3CAOfv0OzH-kGhj1-41" value="- workingState : int = 0" style="text;align=left;verticalAlign=top;spacingLeft=4;spacingRight=4;overflow=hidden;rotatable=0;points=[[0,0.5],[1,0.5]];portConstraint=eastwest;rounded=0;shadow=0;html=0;" parent="Zo6a3CAOfv0OzH-kGhj1-39" vertex="1">
          <mxGeometry y="52" width="180" height="26" as="geometry" />
        </mxCell>
        <mxCell id="Zo6a3CAOfv0OzH-kGhj1-42" value="- rfidIpAddr: string = &quot;127.0.0.1&quot;" style="text;align=left;verticalAlign=top;spacingLeft=4;spacingRight=4;overflow=hidden;rotatable=0;points=[[0,0.5],[1,0.5]];portConstraint=eastwest;rounded=0;shadow=0;html=0;" parent="Zo6a3CAOfv0OzH-kGhj1-39" vertex="1">
          <mxGeometry y="78" width="180" height="26" as="geometry" />
        </mxCell>
        <mxCell id="Zo6a3CAOfv0OzH-kGhj1-43" value="- rfidIpPort : int = 10001" style="text;align=left;verticalAlign=top;spacingLeft=4;spacingRight=4;overflow=hidden;rotatable=0;points=[[0,0.5],[1,0.5]];portConstraint=eastwest;rounded=0;shadow=0;html=0;" parent="Zo6a3CAOfv0OzH-kGhj1-39" vertex="1">
          <mxGeometry y="104" width="180" height="26" as="geometry" />
        </mxCell>
        <mxCell id="Zo6a3CAOfv0OzH-kGhj1-44" value="- rfidStatus : int = -1" style="text;align=left;verticalAlign=top;spacingLeft=4;spacingRight=4;overflow=hidden;rotatable=0;points=[[0,0.5],[1,0.5]];portConstraint=eastwest;rounded=0;shadow=0;html=0;" parent="Zo6a3CAOfv0OzH-kGhj1-39" vertex="1">
          <mxGeometry y="130" width="180" height="26" as="geometry" />
        </mxCell>
        <mxCell id="Zo6a3CAOfv0OzH-kGhj1-57" value="- tagId : ushort" style="text;align=left;verticalAlign=top;spacingLeft=4;spacingRight=4;overflow=hidden;rotatable=0;points=[[0,0.5],[1,0.5]];portConstraint=eastwest;rounded=0;shadow=0;html=0;" parent="Zo6a3CAOfv0OzH-kGhj1-39" vertex="1">
          <mxGeometry y="156" width="180" height="26" as="geometry" />
        </mxCell>
        <mxCell id="Zo6a3CAOfv0OzH-kGhj1-58" value="- productId : ushort" style="text;align=left;verticalAlign=top;spacingLeft=4;spacingRight=4;overflow=hidden;rotatable=0;points=[[0,0.5],[1,0.5]];portConstraint=eastwest;rounded=0;shadow=0;html=0;" parent="Zo6a3CAOfv0OzH-kGhj1-39" vertex="1">
          <mxGeometry y="182" width="180" height="26" as="geometry" />
        </mxCell>
        <mxCell id="Zo6a3CAOfv0OzH-kGhj1-59" value="- cupSize : ushort" style="text;align=left;verticalAlign=top;spacingLeft=4;spacingRight=4;overflow=hidden;rotatable=0;points=[[0,0.5],[1,0.5]];portConstraint=eastwest;rounded=0;shadow=0;html=0;" parent="Zo6a3CAOfv0OzH-kGhj1-39" vertex="1">
          <mxGeometry y="208" width="180" height="26" as="geometry" />
        </mxCell>
        <mxCell id="Zo6a3CAOfv0OzH-kGhj1-60" value="- editMode: bool = false" style="text;align=left;verticalAlign=top;spacingLeft=4;spacingRight=4;overflow=hidden;rotatable=0;points=[[0,0.5],[1,0.5]];portConstraint=eastwest;rounded=0;shadow=0;html=0;" parent="Zo6a3CAOfv0OzH-kGhj1-39" vertex="1">
          <mxGeometry y="234" width="180" height="26" as="geometry" />
        </mxCell>
        <mxCell id="Zo6a3CAOfv0OzH-kGhj1-61" value="- selected : bool = false" style="text;align=left;verticalAlign=top;spacingLeft=4;spacingRight=4;overflow=hidden;rotatable=0;points=[[0,0.5],[1,0.5]];portConstraint=eastwest;rounded=0;shadow=0;html=0;" parent="Zo6a3CAOfv0OzH-kGhj1-39" vertex="1">
          <mxGeometry y="260" width="180" height="26" as="geometry" />
        </mxCell>
        <mxCell id="Zo6a3CAOfv0OzH-kGhj1-62" value="- expanded : bool = false" style="text;align=left;verticalAlign=top;spacingLeft=4;spacingRight=4;overflow=hidden;rotatable=0;points=[[0,0.5],[1,0.5]];portConstraint=eastwest;rounded=0;shadow=0;html=0;" parent="Zo6a3CAOfv0OzH-kGhj1-39" vertex="1">
          <mxGeometry y="286" width="180" height="26" as="geometry" />
        </mxCell>
        <mxCell id="Zo6a3CAOfv0OzH-kGhj1-63" value="- ID : int" style="text;align=left;verticalAlign=top;spacingLeft=4;spacingRight=4;overflow=hidden;rotatable=0;points=[[0,0.5],[1,0.5]];portConstraint=eastwest;rounded=0;shadow=0;html=0;" parent="Zo6a3CAOfv0OzH-kGhj1-39" vertex="1">
          <mxGeometry y="312" width="180" height="26" as="geometry" />
        </mxCell>
        <mxCell id="Zo6a3CAOfv0OzH-kGhj1-65" value="- lastRfidIpAddr : string" style="text;align=left;verticalAlign=top;spacingLeft=4;spacingRight=4;overflow=hidden;rotatable=0;points=[[0,0.5],[1,0.5]];portConstraint=eastwest;rounded=0;shadow=0;html=0;" parent="Zo6a3CAOfv0OzH-kGhj1-39" vertex="1">
          <mxGeometry y="338" width="180" height="26" as="geometry" />
        </mxCell>
        <mxCell id="Zo6a3CAOfv0OzH-kGhj1-66" value="- lastRfidIpPort : int" style="text;align=left;verticalAlign=top;spacingLeft=4;spacingRight=4;overflow=hidden;rotatable=0;points=[[0,0.5],[1,0.5]];portConstraint=eastwest;rounded=0;shadow=0;html=0;" parent="Zo6a3CAOfv0OzH-kGhj1-39" vertex="1">
          <mxGeometry y="364" width="180" height="26" as="geometry" />
        </mxCell>
        <mxCell id="Zo6a3CAOfv0OzH-kGhj1-67" value="- reportTag : bool = false" style="text;align=left;verticalAlign=top;spacingLeft=4;spacingRight=4;overflow=hidden;rotatable=0;points=[[0,0.5],[1,0.5]];portConstraint=eastwest;rounded=0;shadow=0;html=0;" parent="Zo6a3CAOfv0OzH-kGhj1-39" vertex="1">
          <mxGeometry y="390" width="180" height="26" as="geometry" />
        </mxCell>
        <mxCell id="Zo6a3CAOfv0OzH-kGhj1-87" value="- zeroCountMax : int = 4" style="text;align=left;verticalAlign=top;spacingLeft=4;spacingRight=4;overflow=hidden;rotatable=0;points=[[0,0.5],[1,0.5]];portConstraint=eastwest;rounded=0;shadow=0;html=0;" parent="Zo6a3CAOfv0OzH-kGhj1-39" vertex="1">
          <mxGeometry y="416" width="180" height="26" as="geometry" />
        </mxCell>
        <mxCell id="Zo6a3CAOfv0OzH-kGhj1-88" value="- zeroCount : int = 0" style="text;align=left;verticalAlign=top;spacingLeft=4;spacingRight=4;overflow=hidden;rotatable=0;points=[[0,0.5],[1,0.5]];portConstraint=eastwest;rounded=0;shadow=0;html=0;" parent="Zo6a3CAOfv0OzH-kGhj1-39" vertex="1">
          <mxGeometry y="442" width="180" height="26" as="geometry" />
        </mxCell>
        <mxCell id="Zo6a3CAOfv0OzH-kGhj1-89" value="- timerFuncLock : bool = false" style="text;align=left;verticalAlign=top;spacingLeft=4;spacingRight=4;overflow=hidden;rotatable=0;points=[[0,0.5],[1,0.5]];portConstraint=eastwest;rounded=0;shadow=0;html=0;" parent="Zo6a3CAOfv0OzH-kGhj1-39" vertex="1">
          <mxGeometry y="468" width="180" height="26" as="geometry" />
        </mxCell>
        <mxCell id="Zo6a3CAOfv0OzH-kGhj1-45" value="" style="line;html=1;strokeWidth=1;align=left;verticalAlign=middle;spacingTop=-1;spacingLeft=3;spacingRight=3;rotatable=0;labelPosition=right;points=[];portConstraint=eastwest;" parent="Zo6a3CAOfv0OzH-kGhj1-39" vertex="1">
          <mxGeometry y="494" width="180" height="8" as="geometry" />
        </mxCell>
        <mxCell id="Zo6a3CAOfv0OzH-kGhj1-46" value="+ RFIDProducers()" style="text;align=left;verticalAlign=top;spacingLeft=4;spacingRight=4;overflow=hidden;rotatable=0;points=[[0,0.5],[1,0.5]];portConstraint=eastwest;" parent="Zo6a3CAOfv0OzH-kGhj1-39" vertex="1">
          <mxGeometry y="502" width="180" height="26" as="geometry" />
        </mxCell>
        <mxCell id="Zo6a3CAOfv0OzH-kGhj1-47" value="+ Cancel()" style="text;align=left;verticalAlign=top;spacingLeft=4;spacingRight=4;overflow=hidden;rotatable=0;points=[[0,0.5],[1,0.5]];portConstraint=eastwest;" parent="Zo6a3CAOfv0OzH-kGhj1-39" vertex="1">
          <mxGeometry y="528" width="180" height="26" as="geometry" />
        </mxCell>
        <mxCell id="Zo6a3CAOfv0OzH-kGhj1-90" value="+ ValidateInput()" style="text;align=left;verticalAlign=top;spacingLeft=4;spacingRight=4;overflow=hidden;rotatable=0;points=[[0,0.5],[1,0.5]];portConstraint=eastwest;" parent="Zo6a3CAOfv0OzH-kGhj1-39" vertex="1">
          <mxGeometry y="554" width="180" height="26" as="geometry" />
        </mxCell>
        <mxCell id="Zo6a3CAOfv0OzH-kGhj1-91" value="+ Start()" style="text;align=left;verticalAlign=top;spacingLeft=4;spacingRight=4;overflow=hidden;rotatable=0;points=[[0,0.5],[1,0.5]];portConstraint=eastwest;" parent="Zo6a3CAOfv0OzH-kGhj1-39" vertex="1">
          <mxGeometry y="580" width="180" height="26" as="geometry" />
        </mxCell>
        <mxCell id="Zo6a3CAOfv0OzH-kGhj1-92" value="+ Stop()" style="text;align=left;verticalAlign=top;spacingLeft=4;spacingRight=4;overflow=hidden;rotatable=0;points=[[0,0.5],[1,0.5]];portConstraint=eastwest;" parent="Zo6a3CAOfv0OzH-kGhj1-39" vertex="1">
          <mxGeometry y="606" width="180" height="26" as="geometry" />
        </mxCell>
        <mxCell id="Zo6a3CAOfv0OzH-kGhj1-49" value="0..1" style="text;html=1;align=right;verticalAlign=middle;resizable=0;points=[];autosize=1;strokeColor=none;fillColor=none;" parent="WIyWlLk6GJQsqaUBKTNV-1" vertex="1">
          <mxGeometry x="620" y="102" width="40" height="30" as="geometry" />
        </mxCell>
        <mxCell id="Zo6a3CAOfv0OzH-kGhj1-50" value="readers" style="text;html=1;align=right;verticalAlign=middle;resizable=0;points=[];autosize=1;strokeColor=none;fillColor=none;" parent="WIyWlLk6GJQsqaUBKTNV-1" vertex="1">
          <mxGeometry x="600" y="133" width="60" height="30" as="geometry" />
        </mxCell>
        <mxCell id="Zo6a3CAOfv0OzH-kGhj1-68" style="edgeStyle=orthogonalEdgeStyle;rounded=0;orthogonalLoop=1;jettySize=auto;html=1;strokeWidth=3;endArrow=none;endFill=0;" parent="WIyWlLk6GJQsqaUBKTNV-1" source="Zo6a3CAOfv0OzH-kGhj1-39" target="Zo6a3CAOfv0OzH-kGhj1-0" edge="1">
          <mxGeometry relative="1" as="geometry">
            <mxPoint x="210" y="387" as="sourcePoint" />
            <mxPoint x="290.9999999999998" y="387" as="targetPoint" />
            <Array as="points">
              <mxPoint x="220" y="330" />
              <mxPoint x="220" y="330" />
            </Array>
          </mxGeometry>
        </mxCell>
        <mxCell id="Zo6a3CAOfv0OzH-kGhj1-84" style="edgeStyle=orthogonalEdgeStyle;rounded=0;orthogonalLoop=1;jettySize=auto;html=1;strokeWidth=3;endArrow=none;endFill=0;" parent="WIyWlLk6GJQsqaUBKTNV-1" source="Zo6a3CAOfv0OzH-kGhj1-39" target="Zo6a3CAOfv0OzH-kGhj1-83" edge="1">
          <mxGeometry relative="1" as="geometry">
            <mxPoint x="209.99999999999977" y="561" as="sourcePoint" />
            <mxPoint x="220" y="907" as="targetPoint" />
            <Array as="points">
              <mxPoint x="40" y="906" />
            </Array>
          </mxGeometry>
        </mxCell>
        <mxCell id="Zo6a3CAOfv0OzH-kGhj1-99" style="edgeStyle=orthogonalEdgeStyle;rounded=0;orthogonalLoop=1;jettySize=auto;html=1;strokeWidth=3;endArrow=none;endFill=0;" parent="WIyWlLk6GJQsqaUBKTNV-1" source="Zo6a3CAOfv0OzH-kGhj1-93" target="Zo6a3CAOfv0OzH-kGhj1-19" edge="1">
          <mxGeometry relative="1" as="geometry">
            <mxPoint x="291" y="912" as="sourcePoint" />
            <mxPoint x="372" y="912" as="targetPoint" />
            <Array as="points">
              <mxPoint x="310" y="866" />
            </Array>
          </mxGeometry>
        </mxCell>
        <mxCell id="Zo6a3CAOfv0OzH-kGhj1-100" style="edgeStyle=orthogonalEdgeStyle;rounded=0;orthogonalLoop=1;jettySize=auto;html=1;strokeWidth=3;endArrow=none;endFill=0;" parent="WIyWlLk6GJQsqaUBKTNV-1" source="Zo6a3CAOfv0OzH-kGhj1-96" target="Zo6a3CAOfv0OzH-kGhj1-19" edge="1">
          <mxGeometry relative="1" as="geometry">
            <mxPoint x="340" y="1030" as="sourcePoint" />
            <mxPoint x="490" y="918" as="targetPoint" />
            <Array as="points">
              <mxPoint x="310" y="916" />
            </Array>
          </mxGeometry>
        </mxCell>
        <mxCell id="Zo6a3CAOfv0OzH-kGhj1-103" value="" style="endArrow=block;endSize=10;endFill=0;shadow=0;strokeWidth=1;rounded=0;edgeStyle=elbowEdgeStyle;elbow=vertical;" parent="WIyWlLk6GJQsqaUBKTNV-1" edge="1">
          <mxGeometry width="160" relative="1" as="geometry">
            <mxPoint x="190" y="210" as="sourcePoint" />
            <mxPoint x="660" y="210" as="targetPoint" />
            <Array as="points">
              <mxPoint x="340" y="210" />
            </Array>
          </mxGeometry>
        </mxCell>
        <mxCell id="Zo6a3CAOfv0OzH-kGhj1-104" value="ObservableCollection &amp;lt;RFIDProducer&amp;gt;" style="text;html=1;align=center;verticalAlign=middle;resizable=0;points=[];autosize=1;strokeColor=none;fillColor=none;" parent="WIyWlLk6GJQsqaUBKTNV-1" vertex="1">
          <mxGeometry x="260" y="178" width="230" height="30" as="geometry" />
        </mxCell>
        <mxCell id="Zo6a3CAOfv0OzH-kGhj1-116" style="edgeStyle=orthogonalEdgeStyle;rounded=0;orthogonalLoop=1;jettySize=auto;html=1;endArrow=block;endFill=0;endSize=10;" parent="WIyWlLk6GJQsqaUBKTNV-1" source="Zo6a3CAOfv0OzH-kGhj1-114" target="Zo6a3CAOfv0OzH-kGhj1-0" edge="1">
          <mxGeometry relative="1" as="geometry">
            <Array as="points">
              <mxPoint x="620" y="615" />
              <mxPoint x="620" y="615" />
            </Array>
          </mxGeometry>
        </mxCell>
        <mxCell id="Zo6a3CAOfv0OzH-kGhj1-123" style="edgeStyle=orthogonalEdgeStyle;rounded=0;orthogonalLoop=1;jettySize=auto;html=1;strokeWidth=3;endArrow=none;endFill=0;" parent="WIyWlLk6GJQsqaUBKTNV-1" source="Zo6a3CAOfv0OzH-kGhj1-0" target="Zo6a3CAOfv0OzH-kGhj1-117" edge="1">
          <mxGeometry relative="1" as="geometry">
            <mxPoint x="439" y="439" as="sourcePoint" />
            <mxPoint x="521" y="439" as="targetPoint" />
            <Array as="points">
              <mxPoint x="620" y="475" />
              <mxPoint x="620" y="475" />
            </Array>
          </mxGeometry>
        </mxCell>
        <mxCell id="Zo6a3CAOfv0OzH-kGhj1-131" style="edgeStyle=orthogonalEdgeStyle;rounded=0;orthogonalLoop=1;jettySize=auto;html=1;strokeWidth=3;endArrow=none;endFill=0;" parent="WIyWlLk6GJQsqaUBKTNV-1" source="Zo6a3CAOfv0OzH-kGhj1-0" target="Zo6a3CAOfv0OzH-kGhj1-126" edge="1">
          <mxGeometry relative="1" as="geometry">
            <mxPoint x="461" y="440" as="sourcePoint" />
            <mxPoint x="550" y="910" as="targetPoint" />
            <Array as="points">
              <mxPoint x="610" y="360" />
              <mxPoint x="610" y="360" />
            </Array>
          </mxGeometry>
        </mxCell>
        <mxCell id="Zo6a3CAOfv0OzH-kGhj1-135" value="" style="group" parent="WIyWlLk6GJQsqaUBKTNV-1" vertex="1" connectable="0">
          <mxGeometry x="338" y="220" width="240" height="216" as="geometry" />
        </mxCell>
        <mxCell id="Zo6a3CAOfv0OzH-kGhj1-0" value="TagReader" style="swimlane;fontStyle=0;align=center;verticalAlign=top;childLayout=stackLayout;horizontal=1;startSize=26;horizontalStack=0;resizeParent=1;resizeLast=0;collapsible=1;marginBottom=0;rounded=0;shadow=0;strokeWidth=1;" parent="Zo6a3CAOfv0OzH-kGhj1-135" vertex="1">
          <mxGeometry x="80" width="160" height="632" as="geometry">
            <mxRectangle x="550" y="140" width="160" height="26" as="alternateBounds" />
          </mxGeometry>
        </mxCell>
        <mxCell id="Zo6a3CAOfv0OzH-kGhj1-1" value="+ IsWorking : bool" style="text;align=left;verticalAlign=top;spacingLeft=4;spacingRight=4;overflow=hidden;rotatable=0;points=[[0,0.5],[1,0.5]];portConstraint=eastwest;" parent="Zo6a3CAOfv0OzH-kGhj1-0" vertex="1">
          <mxGeometry y="26" width="160" height="26" as="geometry" />
        </mxCell>
        <mxCell id="Zo6a3CAOfv0OzH-kGhj1-2" value="+ IsConnected : bool" style="text;align=left;verticalAlign=top;spacingLeft=4;spacingRight=4;overflow=hidden;rotatable=0;points=[[0,0.5],[1,0.5]];portConstraint=eastwest;rounded=0;shadow=0;html=0;" parent="Zo6a3CAOfv0OzH-kGhj1-0" vertex="1">
          <mxGeometry y="52" width="160" height="26" as="geometry" />
        </mxCell>
        <mxCell id="Zo6a3CAOfv0OzH-kGhj1-3" value="- maxTagsAllowed : int" style="text;align=left;verticalAlign=top;spacingLeft=4;spacingRight=4;overflow=hidden;rotatable=0;points=[[0,0.5],[1,0.5]];portConstraint=eastwest;rounded=0;shadow=0;html=0;" parent="Zo6a3CAOfv0OzH-kGhj1-0" vertex="1">
          <mxGeometry y="78" width="160" height="26" as="geometry" />
        </mxCell>
        <mxCell id="Zo6a3CAOfv0OzH-kGhj1-4" value="- isConnected : bool" style="text;align=left;verticalAlign=top;spacingLeft=4;spacingRight=4;overflow=hidden;rotatable=0;points=[[0,0.5],[1,0.5]];portConstraint=eastwest;rounded=0;shadow=0;html=0;" parent="Zo6a3CAOfv0OzH-kGhj1-0" vertex="1">
          <mxGeometry y="104" width="160" height="26" as="geometry" />
        </mxCell>
        <mxCell id="Zo6a3CAOfv0OzH-kGhj1-5" value="listAntennas : List&lt;bite&gt;" style="text;align=left;verticalAlign=top;spacingLeft=4;spacingRight=4;overflow=hidden;rotatable=0;points=[[0,0.5],[1,0.5]];portConstraint=eastwest;rounded=0;shadow=0;html=0;" parent="Zo6a3CAOfv0OzH-kGhj1-0" vertex="1">
          <mxGeometry y="130" width="160" height="26" as="geometry" />
        </mxCell>
        <mxCell id="Zo6a3CAOfv0OzH-kGhj1-150" value="listAntennas : List&lt;bite&gt;" style="text;align=left;verticalAlign=top;spacingLeft=4;spacingRight=4;overflow=hidden;rotatable=0;points=[[0,0.5],[1,0.5]];portConstraint=eastwest;rounded=0;shadow=0;html=0;" parent="Zo6a3CAOfv0OzH-kGhj1-0" vertex="1">
          <mxGeometry y="156" width="160" height="26" as="geometry" />
        </mxCell>
        <mxCell id="Zo6a3CAOfv0OzH-kGhj1-157" value="- currentAddress : string" style="text;align=left;verticalAlign=top;spacingLeft=4;spacingRight=4;overflow=hidden;rotatable=0;points=[[0,0.5],[1,0.5]];portConstraint=eastwest;rounded=0;shadow=0;html=0;" parent="Zo6a3CAOfv0OzH-kGhj1-0" vertex="1">
          <mxGeometry y="182" width="160" height="26" as="geometry" />
        </mxCell>
        <mxCell id="Zo6a3CAOfv0OzH-kGhj1-158" value="- currentPortNum : string" style="text;align=left;verticalAlign=top;spacingLeft=4;spacingRight=4;overflow=hidden;rotatable=0;points=[[0,0.5],[1,0.5]];portConstraint=eastwest;rounded=0;shadow=0;html=0;" parent="Zo6a3CAOfv0OzH-kGhj1-0" vertex="1">
          <mxGeometry y="208" width="160" height="26" as="geometry" />
        </mxCell>
        <mxCell id="Zo6a3CAOfv0OzH-kGhj1-6" value="" style="line;html=1;strokeWidth=1;align=left;verticalAlign=middle;spacingTop=-1;spacingLeft=3;spacingRight=3;rotatable=0;labelPosition=right;points=[];portConstraint=eastwest;" parent="Zo6a3CAOfv0OzH-kGhj1-0" vertex="1">
          <mxGeometry y="234" width="160" height="8" as="geometry" />
        </mxCell>
        <mxCell id="Zo6a3CAOfv0OzH-kGhj1-7" value="+TagReader()" style="text;align=left;verticalAlign=top;spacingLeft=4;spacingRight=4;overflow=hidden;rotatable=0;points=[[0,0.5],[1,0.5]];portConstraint=eastwest;" parent="Zo6a3CAOfv0OzH-kGhj1-0" vertex="1">
          <mxGeometry y="242" width="160" height="26" as="geometry" />
        </mxCell>
        <mxCell id="Zo6a3CAOfv0OzH-kGhj1-159" value="+ DisconnectAsync()" style="text;align=left;verticalAlign=top;spacingLeft=4;spacingRight=4;overflow=hidden;rotatable=0;points=[[0,0.5],[1,0.5]];portConstraint=eastwest;" parent="Zo6a3CAOfv0OzH-kGhj1-0" vertex="1">
          <mxGeometry y="268" width="160" height="26" as="geometry" />
        </mxCell>
        <mxCell id="Zo6a3CAOfv0OzH-kGhj1-161" value="+ ConnectAsync()" style="text;align=left;verticalAlign=top;spacingLeft=4;spacingRight=4;overflow=hidden;rotatable=0;points=[[0,0.5],[1,0.5]];portConstraint=eastwest;" parent="Zo6a3CAOfv0OzH-kGhj1-0" vertex="1">
          <mxGeometry y="294" width="160" height="26" as="geometry" />
        </mxCell>
        <mxCell id="Zo6a3CAOfv0OzH-kGhj1-160" value="+ ListTagsAsync()" style="text;align=left;verticalAlign=top;spacingLeft=4;spacingRight=4;overflow=hidden;rotatable=0;points=[[0,0.5],[1,0.5]];portConstraint=eastwest;" parent="Zo6a3CAOfv0OzH-kGhj1-0" vertex="1">
          <mxGeometry y="320" width="160" height="26" as="geometry" />
        </mxCell>
        <mxCell id="Zo6a3CAOfv0OzH-kGhj1-162" value="+ WriteTagAsync()" style="text;align=left;verticalAlign=top;spacingLeft=4;spacingRight=4;overflow=hidden;rotatable=0;points=[[0,0.5],[1,0.5]];portConstraint=eastwest;" parent="Zo6a3CAOfv0OzH-kGhj1-0" vertex="1">
          <mxGeometry y="346" width="160" height="26" as="geometry" />
        </mxCell>
        <mxCell id="Zo6a3CAOfv0OzH-kGhj1-163" value="+ ReadDataFromTag()" style="text;align=left;verticalAlign=top;spacingLeft=4;spacingRight=4;overflow=hidden;rotatable=0;points=[[0,0.5],[1,0.5]];portConstraint=eastwest;" parent="Zo6a3CAOfv0OzH-kGhj1-0" vertex="1">
          <mxGeometry y="372" width="160" height="26" as="geometry" />
        </mxCell>
        <mxCell id="Zo6a3CAOfv0OzH-kGhj1-164" value="+ ReadIdFromTag()" style="text;align=left;verticalAlign=top;spacingLeft=4;spacingRight=4;overflow=hidden;rotatable=0;points=[[0,0.5],[1,0.5]];portConstraint=eastwest;" parent="Zo6a3CAOfv0OzH-kGhj1-0" vertex="1">
          <mxGeometry y="398" width="160" height="26" as="geometry" />
        </mxCell>
        <mxCell id="Zo6a3CAOfv0OzH-kGhj1-165" value="+ ReadCupSizeFromTag()" style="text;align=left;verticalAlign=top;spacingLeft=4;spacingRight=4;overflow=hidden;rotatable=0;points=[[0,0.5],[1,0.5]];portConstraint=eastwest;" parent="Zo6a3CAOfv0OzH-kGhj1-0" vertex="1">
          <mxGeometry y="424" width="160" height="26" as="geometry" />
        </mxCell>
        <mxCell id="Zo6a3CAOfv0OzH-kGhj1-166" value="+ ReadProductIdFromTag()" style="text;align=left;verticalAlign=top;spacingLeft=4;spacingRight=4;overflow=hidden;rotatable=0;points=[[0,0.5],[1,0.5]];portConstraint=eastwest;" parent="Zo6a3CAOfv0OzH-kGhj1-0" vertex="1">
          <mxGeometry y="450" width="160" height="26" as="geometry" />
        </mxCell>
        <mxCell id="Zo6a3CAOfv0OzH-kGhj1-167" value="+ Disonnect()" style="text;align=left;verticalAlign=top;spacingLeft=4;spacingRight=4;overflow=hidden;rotatable=0;points=[[0,0.5],[1,0.5]];portConstraint=eastwest;" parent="Zo6a3CAOfv0OzH-kGhj1-0" vertex="1">
          <mxGeometry y="476" width="160" height="26" as="geometry" />
        </mxCell>
        <mxCell id="Zo6a3CAOfv0OzH-kGhj1-168" value="- SearchForTags()" style="text;align=left;verticalAlign=top;spacingLeft=4;spacingRight=4;overflow=hidden;rotatable=0;points=[[0,0.5],[1,0.5]];portConstraint=eastwest;" parent="Zo6a3CAOfv0OzH-kGhj1-0" vertex="1">
          <mxGeometry y="502" width="160" height="26" as="geometry" />
        </mxCell>
        <mxCell id="Zo6a3CAOfv0OzH-kGhj1-169" value="- ExploreDictionary()" style="text;align=left;verticalAlign=top;spacingLeft=4;spacingRight=4;overflow=hidden;rotatable=0;points=[[0,0.5],[1,0.5]];portConstraint=eastwest;" parent="Zo6a3CAOfv0OzH-kGhj1-0" vertex="1">
          <mxGeometry y="528" width="160" height="26" as="geometry" />
        </mxCell>
        <mxCell id="Zo6a3CAOfv0OzH-kGhj1-171" value="- ReadTagHandler()" style="text;align=left;verticalAlign=top;spacingLeft=4;spacingRight=4;overflow=hidden;rotatable=0;points=[[0,0.5],[1,0.5]];portConstraint=eastwest;" parent="Zo6a3CAOfv0OzH-kGhj1-0" vertex="1">
          <mxGeometry y="554" width="160" height="26" as="geometry" />
        </mxCell>
        <mxCell id="Zo6a3CAOfv0OzH-kGhj1-170" value="- ExploreAndWrite()" style="text;align=left;verticalAlign=top;spacingLeft=4;spacingRight=4;overflow=hidden;rotatable=0;points=[[0,0.5],[1,0.5]];portConstraint=eastwest;" parent="Zo6a3CAOfv0OzH-kGhj1-0" vertex="1">
          <mxGeometry y="580" width="160" height="26" as="geometry" />
        </mxCell>
        <mxCell id="Zo6a3CAOfv0OzH-kGhj1-172" value="- WriteTagHandler()" style="text;align=left;verticalAlign=top;spacingLeft=4;spacingRight=4;overflow=hidden;rotatable=0;points=[[0,0.5],[1,0.5]];portConstraint=eastwest;" parent="Zo6a3CAOfv0OzH-kGhj1-0" vertex="1">
          <mxGeometry y="606" width="160" height="26" as="geometry" />
        </mxCell>
        <mxCell id="Zo6a3CAOfv0OzH-kGhj1-69" value="0..1" style="text;html=1;align=right;verticalAlign=middle;resizable=0;points=[];autosize=1;strokeColor=none;fillColor=none;" parent="Zo6a3CAOfv0OzH-kGhj1-135" vertex="1">
          <mxGeometry x="40" y="77.5" width="40" height="30" as="geometry" />
        </mxCell>
        <mxCell id="Zo6a3CAOfv0OzH-kGhj1-70" value="tagReader" style="text;html=1;align=right;verticalAlign=middle;resizable=0;points=[];autosize=1;strokeColor=none;fillColor=none;" parent="Zo6a3CAOfv0OzH-kGhj1-135" vertex="1">
          <mxGeometry y="108.5" width="80" height="30" as="geometry" />
        </mxCell>
        <mxCell id="Zo6a3CAOfv0OzH-kGhj1-138" value="" style="group" parent="WIyWlLk6GJQsqaUBKTNV-1" vertex="1" connectable="0">
          <mxGeometry x="590" y="290" width="230" height="110" as="geometry" />
        </mxCell>
        <mxCell id="Zo6a3CAOfv0OzH-kGhj1-126" value="struct: TagData" style="swimlane;fontStyle=0;align=center;verticalAlign=top;childLayout=stackLayout;horizontal=1;startSize=30;horizontalStack=0;resizeParent=1;resizeLast=0;collapsible=1;marginBottom=0;rounded=0;shadow=0;strokeWidth=1;" parent="Zo6a3CAOfv0OzH-kGhj1-138" vertex="1">
          <mxGeometry x="70" width="160" height="110" as="geometry">
            <mxRectangle x="340" y="380" width="170" height="26" as="alternateBounds" />
          </mxGeometry>
        </mxCell>
        <mxCell id="Zo6a3CAOfv0OzH-kGhj1-127" value="+ ID : string" style="text;align=left;verticalAlign=top;spacingLeft=4;spacingRight=4;overflow=hidden;rotatable=0;points=[[0,0.5],[1,0.5]];portConstraint=eastwest;" parent="Zo6a3CAOfv0OzH-kGhj1-126" vertex="1">
          <mxGeometry y="30" width="160" height="26" as="geometry" />
        </mxCell>
        <mxCell id="Zo6a3CAOfv0OzH-kGhj1-128" value="+ BlockSize: uint" style="text;align=left;verticalAlign=top;spacingLeft=4;spacingRight=4;overflow=hidden;rotatable=0;points=[[0,0.5],[1,0.5]];portConstraint=eastwest;" parent="Zo6a3CAOfv0OzH-kGhj1-126" vertex="1">
          <mxGeometry y="56" width="160" height="26" as="geometry" />
        </mxCell>
        <mxCell id="Zo6a3CAOfv0OzH-kGhj1-129" value="+ Data : byte []" style="text;align=left;verticalAlign=top;spacingLeft=4;spacingRight=4;overflow=hidden;rotatable=0;points=[[0,0.5],[1,0.5]];portConstraint=eastwest;" parent="Zo6a3CAOfv0OzH-kGhj1-126" vertex="1">
          <mxGeometry y="82" width="160" height="26" as="geometry" />
        </mxCell>
        <mxCell id="Zo6a3CAOfv0OzH-kGhj1-132" value="0..1" style="text;html=1;align=right;verticalAlign=middle;resizable=0;points=[];autosize=1;strokeColor=none;fillColor=none;" parent="Zo6a3CAOfv0OzH-kGhj1-138" vertex="1">
          <mxGeometry x="30" y="40" width="40" height="30" as="geometry" />
        </mxCell>
        <mxCell id="Zo6a3CAOfv0OzH-kGhj1-133" value="TagData" style="text;html=1;align=right;verticalAlign=middle;resizable=0;points=[];autosize=1;strokeColor=none;fillColor=none;" parent="Zo6a3CAOfv0OzH-kGhj1-138" vertex="1">
          <mxGeometry y="70" width="70" height="30" as="geometry" />
        </mxCell>
        <mxCell id="Zo6a3CAOfv0OzH-kGhj1-146" value="" style="group" parent="WIyWlLk6GJQsqaUBKTNV-1" vertex="1" connectable="0">
          <mxGeometry x="560" y="408" width="260" height="231" as="geometry" />
        </mxCell>
        <mxCell id="Zo6a3CAOfv0OzH-kGhj1-117" value="enum: ConnectStatus" style="swimlane;fontStyle=0;align=center;verticalAlign=top;childLayout=stackLayout;horizontal=1;startSize=30;horizontalStack=0;resizeParent=1;resizeLast=0;collapsible=1;marginBottom=0;rounded=0;shadow=0;strokeWidth=1;" parent="Zo6a3CAOfv0OzH-kGhj1-146" vertex="1">
          <mxGeometry x="100" width="160" height="134" as="geometry">
            <mxRectangle x="340" y="380" width="170" height="26" as="alternateBounds" />
          </mxGeometry>
        </mxCell>
        <mxCell id="Zo6a3CAOfv0OzH-kGhj1-119" value="InputError = -2" style="text;align=left;verticalAlign=top;spacingLeft=4;spacingRight=4;overflow=hidden;rotatable=0;points=[[0,0.5],[1,0.5]];portConstraint=eastwest;" parent="Zo6a3CAOfv0OzH-kGhj1-117" vertex="1">
          <mxGeometry y="30" width="160" height="26" as="geometry" />
        </mxCell>
        <mxCell id="Zo6a3CAOfv0OzH-kGhj1-120" value="ConnectionFailed" style="text;align=left;verticalAlign=top;spacingLeft=4;spacingRight=4;overflow=hidden;rotatable=0;points=[[0,0.5],[1,0.5]];portConstraint=eastwest;" parent="Zo6a3CAOfv0OzH-kGhj1-117" vertex="1">
          <mxGeometry y="56" width="160" height="26" as="geometry" />
        </mxCell>
        <mxCell id="Zo6a3CAOfv0OzH-kGhj1-122" value="ConnectionSuccessful" style="text;align=left;verticalAlign=top;spacingLeft=4;spacingRight=4;overflow=hidden;rotatable=0;points=[[0,0.5],[1,0.5]];portConstraint=eastwest;" parent="Zo6a3CAOfv0OzH-kGhj1-117" vertex="1">
          <mxGeometry y="82" width="160" height="26" as="geometry" />
        </mxCell>
        <mxCell id="Zo6a3CAOfv0OzH-kGhj1-121" value="AlreadyConnected" style="text;align=left;verticalAlign=top;spacingLeft=4;spacingRight=4;overflow=hidden;rotatable=0;points=[[0,0.5],[1,0.5]];portConstraint=eastwest;" parent="Zo6a3CAOfv0OzH-kGhj1-117" vertex="1">
          <mxGeometry y="108" width="160" height="26" as="geometry" />
        </mxCell>
        <mxCell id="Zo6a3CAOfv0OzH-kGhj1-124" value="0..1" style="text;html=1;align=right;verticalAlign=middle;resizable=0;points=[];autosize=1;strokeColor=none;fillColor=none;" parent="Zo6a3CAOfv0OzH-kGhj1-146" vertex="1">
          <mxGeometry x="60" y="39" width="40" height="30" as="geometry" />
        </mxCell>
        <mxCell id="Zo6a3CAOfv0OzH-kGhj1-125" value="ConnectStatus" style="text;html=1;align=right;verticalAlign=middle;resizable=0;points=[];autosize=1;strokeColor=none;fillColor=none;" parent="Zo6a3CAOfv0OzH-kGhj1-146" vertex="1">
          <mxGeometry y="69" width="100" height="30" as="geometry" />
        </mxCell>
        <mxCell id="xLBljeipVpX7jI4Rn6KQ-3" value="" style="group" parent="Zo6a3CAOfv0OzH-kGhj1-146" vertex="1" connectable="0">
          <mxGeometry x="50" y="131" width="210" height="100" as="geometry" />
        </mxCell>
        <mxCell id="Zo6a3CAOfv0OzH-kGhj1-145" value="OBID.FedmlscReader" style="swimlane;fontStyle=0;align=center;verticalAlign=top;childLayout=stackLayout;horizontal=1;startSize=26;horizontalStack=0;resizeParent=1;resizeLast=0;collapsible=1;marginBottom=0;rounded=0;shadow=0;strokeWidth=1;" parent="xLBljeipVpX7jI4Rn6KQ-3" vertex="1">
          <mxGeometry x="50" y="10" width="160" height="40" as="geometry">
            <mxRectangle x="230" y="140" width="160" height="26" as="alternateBounds" />
          </mxGeometry>
        </mxCell>
        <mxCell id="Zo6a3CAOfv0OzH-kGhj1-148" value="0..1" style="text;html=1;align=right;verticalAlign=middle;resizable=0;points=[];autosize=1;strokeColor=none;fillColor=none;" parent="xLBljeipVpX7jI4Rn6KQ-3" vertex="1">
          <mxGeometry x="10" width="40" height="30" as="geometry" />
        </mxCell>
        <mxCell id="Zo6a3CAOfv0OzH-kGhj1-149" value="fedm" style="text;html=1;align=right;verticalAlign=middle;resizable=0;points=[];autosize=1;strokeColor=none;fillColor=none;" parent="xLBljeipVpX7jI4Rn6KQ-3" vertex="1">
          <mxGeometry y="30" width="50" height="30" as="geometry" />
        </mxCell>
        <mxCell id="Zo6a3CAOfv0OzH-kGhj1-114" value="INotifyPropertyChanged" style="swimlane;fontStyle=0;align=center;verticalAlign=top;childLayout=stackLayout;horizontal=1;startSize=26;horizontalStack=0;resizeParent=1;resizeLast=0;collapsible=1;marginBottom=0;rounded=0;shadow=0;strokeWidth=1;" parent="xLBljeipVpX7jI4Rn6KQ-3" vertex="1">
          <mxGeometry x="50" y="56" width="160" height="40" as="geometry">
            <mxRectangle x="340" y="380" width="170" height="26" as="alternateBounds" />
          </mxGeometry>
        </mxCell>
        <mxCell id="Zo6a3CAOfv0OzH-kGhj1-147" style="edgeStyle=orthogonalEdgeStyle;rounded=0;orthogonalLoop=1;jettySize=auto;html=1;strokeWidth=3;endArrow=none;endFill=0;" parent="WIyWlLk6GJQsqaUBKTNV-1" source="Zo6a3CAOfv0OzH-kGhj1-0" target="Zo6a3CAOfv0OzH-kGhj1-145" edge="1">
          <mxGeometry relative="1" as="geometry">
            <mxPoint x="559.9999999999998" y="630" as="sourcePoint" />
            <mxPoint x="629" y="630" as="targetPoint" />
            <Array as="points">
              <mxPoint x="610" y="569" />
              <mxPoint x="610" y="569" />
            </Array>
          </mxGeometry>
        </mxCell>
        <mxCell id="Zo6a3CAOfv0OzH-kGhj1-156" style="edgeStyle=orthogonalEdgeStyle;rounded=0;orthogonalLoop=1;jettySize=auto;html=1;strokeWidth=3;endArrow=none;endFill=0;" parent="WIyWlLk6GJQsqaUBKTNV-1" source="Zo6a3CAOfv0OzH-kGhj1-0" target="Zo6a3CAOfv0OzH-kGhj1-153" edge="1">
          <mxGeometry relative="1" as="geometry">
            <mxPoint x="411" y="502" as="sourcePoint" />
            <mxPoint x="610" y="562" as="targetPoint" />
            <Array as="points">
              <mxPoint x="810" y="790" />
            </Array>
          </mxGeometry>
        </mxCell>
        <mxCell id="Zo6a3CAOfv0OzH-kGhj1-141" value="" style="group" parent="WIyWlLk6GJQsqaUBKTNV-1" vertex="1" connectable="0">
          <mxGeometry x="50" y="876" width="210" height="60" as="geometry" />
        </mxCell>
        <mxCell id="Zo6a3CAOfv0OzH-kGhj1-83" value="System.Timers.Timer" style="swimlane;fontStyle=0;align=center;verticalAlign=top;childLayout=stackLayout;horizontal=1;startSize=26;horizontalStack=0;resizeParent=1;resizeLast=0;collapsible=1;marginBottom=0;rounded=0;shadow=0;strokeWidth=1;" parent="Zo6a3CAOfv0OzH-kGhj1-141" vertex="1">
          <mxGeometry x="50" y="10" width="160" height="40" as="geometry">
            <mxRectangle x="130" y="380" width="160" height="26" as="alternateBounds" />
          </mxGeometry>
        </mxCell>
        <mxCell id="Zo6a3CAOfv0OzH-kGhj1-85" value="0..1" style="text;html=1;align=right;verticalAlign=middle;resizable=0;points=[];autosize=1;strokeColor=none;fillColor=none;" parent="Zo6a3CAOfv0OzH-kGhj1-141" vertex="1">
          <mxGeometry x="10" width="40" height="30" as="geometry" />
        </mxCell>
        <mxCell id="Zo6a3CAOfv0OzH-kGhj1-86" value="timer" style="text;html=1;align=right;verticalAlign=middle;resizable=0;points=[];autosize=1;strokeColor=none;fillColor=none;" parent="Zo6a3CAOfv0OzH-kGhj1-141" vertex="1">
          <mxGeometry y="30" width="50" height="30" as="geometry" />
        </mxCell>
        <mxCell id="Re3lDmDTl00kfTl3TMPs-1" style="edgeStyle=orthogonalEdgeStyle;rounded=0;orthogonalLoop=1;jettySize=auto;html=1;endArrow=none;endFill=0;strokeWidth=3;" edge="1" parent="WIyWlLk6GJQsqaUBKTNV-1" source="Zo6a3CAOfv0OzH-kGhj1-29" target="Zo6a3CAOfv0OzH-kGhj1-39">
          <mxGeometry relative="1" as="geometry">
            <Array as="points">
              <mxPoint x="280" y="770" />
            </Array>
          </mxGeometry>
        </mxCell>
        <mxCell id="Zo6a3CAOfv0OzH-kGhj1-19" value="ModbusClient" style="swimlane;fontStyle=0;align=center;verticalAlign=top;childLayout=stackLayout;horizontal=1;startSize=26;horizontalStack=0;resizeParent=1;resizeLast=0;collapsible=1;marginBottom=0;rounded=0;shadow=0;strokeWidth=1;" parent="WIyWlLk6GJQsqaUBKTNV-1" vertex="1">
          <mxGeometry x="220" y="370" width="180" height="320" as="geometry">
            <mxRectangle x="550" y="140" width="160" height="26" as="alternateBounds" />
          </mxGeometry>
        </mxCell>
        <mxCell id="Zo6a3CAOfv0OzH-kGhj1-20" value="- modbusId : byte = 255" style="text;align=left;verticalAlign=top;spacingLeft=4;spacingRight=4;overflow=hidden;rotatable=0;points=[[0,0.5],[1,0.5]];portConstraint=eastwest;" parent="Zo6a3CAOfv0OzH-kGhj1-19" vertex="1">
          <mxGeometry y="26" width="180" height="26" as="geometry" />
        </mxCell>
        <mxCell id="Zo6a3CAOfv0OzH-kGhj1-101" value="- isConnected : bool" style="text;align=left;verticalAlign=top;spacingLeft=4;spacingRight=4;overflow=hidden;rotatable=0;points=[[0,0.5],[1,0.5]];portConstraint=eastwest;" parent="Zo6a3CAOfv0OzH-kGhj1-19" vertex="1">
          <mxGeometry y="52" width="180" height="26" as="geometry" />
        </mxCell>
        <mxCell id="Zo6a3CAOfv0OzH-kGhj1-21" value="- isWorking : bool" style="text;align=left;verticalAlign=top;spacingLeft=4;spacingRight=4;overflow=hidden;rotatable=0;points=[[0,0.5],[1,0.5]];portConstraint=eastwest;" parent="Zo6a3CAOfv0OzH-kGhj1-19" vertex="1">
          <mxGeometry y="78" width="180" height="26" as="geometry" />
        </mxCell>
        <mxCell id="Zo6a3CAOfv0OzH-kGhj1-22" value="- agentId : ushort = 3" style="text;align=left;verticalAlign=top;spacingLeft=4;spacingRight=4;overflow=hidden;rotatable=0;points=[[0,0.5],[1,0.5]];portConstraint=eastwest;" parent="Zo6a3CAOfv0OzH-kGhj1-19" vertex="1">
          <mxGeometry y="104" width="180" height="26" as="geometry" />
        </mxCell>
        <mxCell id="Zo6a3CAOfv0OzH-kGhj1-102" value="- securityLevel : ushort = 1024" style="text;align=left;verticalAlign=top;spacingLeft=4;spacingRight=4;overflow=hidden;rotatable=0;points=[[0,0.5],[1,0.5]];portConstraint=eastwest;" parent="Zo6a3CAOfv0OzH-kGhj1-19" vertex="1">
          <mxGeometry y="130" width="180" height="26" as="geometry" />
        </mxCell>
        <mxCell id="Zo6a3CAOfv0OzH-kGhj1-23" value="+ ResponseId : ushort = 0" style="text;align=left;verticalAlign=top;spacingLeft=4;spacingRight=4;overflow=hidden;rotatable=0;points=[[0,0.5],[1,0.5]];portConstraint=eastwest;" parent="Zo6a3CAOfv0OzH-kGhj1-19" vertex="1">
          <mxGeometry y="156" width="180" height="26" as="geometry" />
        </mxCell>
        <mxCell id="Zo6a3CAOfv0OzH-kGhj1-24" value="+ ResponseData : ushort []" style="text;align=left;verticalAlign=top;spacingLeft=4;spacingRight=4;overflow=hidden;rotatable=0;points=[[0,0.5],[1,0.5]];portConstraint=eastwest;" parent="Zo6a3CAOfv0OzH-kGhj1-19" vertex="1">
          <mxGeometry y="182" width="180" height="26" as="geometry" />
        </mxCell>
        <mxCell id="Zo6a3CAOfv0OzH-kGhj1-25" value="" style="line;strokeWidth=1;fillColor=none;align=left;verticalAlign=middle;spacingTop=-1;spacingLeft=3;spacingRight=3;rotatable=0;labelPosition=right;points=[];portConstraint=eastwest;strokeColor=inherit;" parent="Zo6a3CAOfv0OzH-kGhj1-19" vertex="1">
          <mxGeometry y="208" width="180" height="8" as="geometry" />
        </mxCell>
        <mxCell id="Zo6a3CAOfv0OzH-kGhj1-26" value="+ StartAsync()" style="text;align=left;verticalAlign=top;spacingLeft=4;spacingRight=4;overflow=hidden;rotatable=0;points=[[0,0.5],[1,0.5]];portConstraint=eastwest;" parent="Zo6a3CAOfv0OzH-kGhj1-19" vertex="1">
          <mxGeometry y="216" width="180" height="26" as="geometry" />
        </mxCell>
        <mxCell id="Zo6a3CAOfv0OzH-kGhj1-27" value="+ Stop()" style="text;align=left;verticalAlign=top;spacingLeft=4;spacingRight=4;overflow=hidden;rotatable=0;points=[[0,0.5],[1,0.5]];portConstraint=eastwest;" parent="Zo6a3CAOfv0OzH-kGhj1-19" vertex="1">
          <mxGeometry y="242" width="180" height="26" as="geometry" />
        </mxCell>
        <mxCell id="Zo6a3CAOfv0OzH-kGhj1-28" value="+ SendTagIDAsync()" style="text;align=left;verticalAlign=top;spacingLeft=4;spacingRight=4;overflow=hidden;rotatable=0;points=[[0,0.5],[1,0.5]];portConstraint=eastwest;" parent="Zo6a3CAOfv0OzH-kGhj1-19" vertex="1">
          <mxGeometry y="268" width="180" height="26" as="geometry" />
        </mxCell>
        <mxCell id="Zo6a3CAOfv0OzH-kGhj1-29" value="- ReadSingleHoldingReg()" style="text;align=left;verticalAlign=top;spacingLeft=4;spacingRight=4;overflow=hidden;rotatable=0;points=[[0,0.5],[1,0.5]];portConstraint=eastwest;" parent="Zo6a3CAOfv0OzH-kGhj1-19" vertex="1">
          <mxGeometry y="294" width="180" height="26" as="geometry" />
        </mxCell>
        <mxCell id="Zo6a3CAOfv0OzH-kGhj1-153" value="OBID.TagHandler.FedmlscTagHandler" style="swimlane;fontStyle=0;align=center;verticalAlign=top;childLayout=stackLayout;horizontal=1;startSize=26;horizontalStack=0;resizeParent=1;resizeLast=0;collapsible=1;marginBottom=0;rounded=0;shadow=0;strokeWidth=1;" parent="WIyWlLk6GJQsqaUBKTNV-1" vertex="1">
          <mxGeometry x="610" y="670" width="210" height="40" as="geometry">
            <mxRectangle x="230" y="140" width="160" height="26" as="alternateBounds" />
          </mxGeometry>
        </mxCell>
        <mxCell id="Zo6a3CAOfv0OzH-kGhj1-154" value="0..1" style="text;html=1;align=right;verticalAlign=middle;resizable=0;points=[];autosize=1;strokeColor=none;fillColor=none;" parent="WIyWlLk6GJQsqaUBKTNV-1" vertex="1">
          <mxGeometry x="760" y="720" width="40" height="30" as="geometry" />
        </mxCell>
        <mxCell id="Zo6a3CAOfv0OzH-kGhj1-155" value="Dictionary &amp;lt; string, tagsInAntenna&amp;gt;" style="text;html=1;align=left;verticalAlign=middle;resizable=0;points=[];autosize=1;strokeColor=none;fillColor=none;" parent="WIyWlLk6GJQsqaUBKTNV-1" vertex="1">
          <mxGeometry x="590" y="760" width="210" height="30" as="geometry" />
        </mxCell>
        <mxCell id="Zo6a3CAOfv0OzH-kGhj1-73" value="modbusClient" style="text;html=1;align=right;verticalAlign=middle;resizable=0;points=[];autosize=1;strokeColor=none;fillColor=none;" parent="WIyWlLk6GJQsqaUBKTNV-1" vertex="1">
          <mxGeometry x="170" y="770" width="100" height="30" as="geometry" />
        </mxCell>
        <mxCell id="Zo6a3CAOfv0OzH-kGhj1-72" value="0..1" style="text;html=1;align=right;verticalAlign=middle;resizable=0;points=[];autosize=1;strokeColor=none;fillColor=none;" parent="WIyWlLk6GJQsqaUBKTNV-1" vertex="1">
          <mxGeometry x="230" y="740" width="40" height="30" as="geometry" />
        </mxCell>
        <mxCell id="Zo6a3CAOfv0OzH-kGhj1-93" value="Modbus.Device.ModbusIpMaster" style="swimlane;fontStyle=0;align=center;verticalAlign=top;childLayout=stackLayout;horizontal=1;startSize=26;horizontalStack=0;resizeParent=1;resizeLast=0;collapsible=1;marginBottom=0;rounded=0;shadow=0;strokeWidth=1;" parent="WIyWlLk6GJQsqaUBKTNV-1" vertex="1">
          <mxGeometry x="620" y="846" width="200" height="40" as="geometry">
            <mxRectangle x="130" y="380" width="160" height="26" as="alternateBounds" />
          </mxGeometry>
        </mxCell>
        <mxCell id="Zo6a3CAOfv0OzH-kGhj1-94" value="0..1" style="text;html=1;align=right;verticalAlign=middle;resizable=0;points=[];autosize=1;strokeColor=none;fillColor=none;" parent="WIyWlLk6GJQsqaUBKTNV-1" vertex="1">
          <mxGeometry x="580" y="836" width="40" height="30" as="geometry" />
        </mxCell>
        <mxCell id="Zo6a3CAOfv0OzH-kGhj1-95" value="modbusMaster" style="text;html=1;align=right;verticalAlign=middle;resizable=0;points=[];autosize=1;strokeColor=none;fillColor=none;" parent="WIyWlLk6GJQsqaUBKTNV-1" vertex="1">
          <mxGeometry x="520" y="866" width="100" height="30" as="geometry" />
        </mxCell>
        <mxCell id="Zo6a3CAOfv0OzH-kGhj1-96" value="System.Net.Sockets.TcpClient" style="swimlane;fontStyle=0;align=center;verticalAlign=top;childLayout=stackLayout;horizontal=1;startSize=26;horizontalStack=0;resizeParent=1;resizeLast=0;collapsible=1;marginBottom=0;rounded=0;shadow=0;strokeWidth=1;" parent="WIyWlLk6GJQsqaUBKTNV-1" vertex="1">
          <mxGeometry x="620" y="896" width="200" height="40" as="geometry">
            <mxRectangle x="130" y="380" width="160" height="26" as="alternateBounds" />
          </mxGeometry>
        </mxCell>
        <mxCell id="Zo6a3CAOfv0OzH-kGhj1-97" value="0..1" style="text;html=1;align=right;verticalAlign=middle;resizable=0;points=[];autosize=1;strokeColor=none;fillColor=none;" parent="WIyWlLk6GJQsqaUBKTNV-1" vertex="1">
          <mxGeometry x="580" y="886" width="40" height="30" as="geometry" />
        </mxCell>
        <mxCell id="Zo6a3CAOfv0OzH-kGhj1-98" value="tcpClient" style="text;html=1;align=right;verticalAlign=middle;resizable=0;points=[];autosize=1;strokeColor=none;fillColor=none;" parent="WIyWlLk6GJQsqaUBKTNV-1" vertex="1">
          <mxGeometry x="550" y="916" width="70" height="30" as="geometry" />
        </mxCell>
      </root>
    </mxGraphModel>
  </diagram>
</mxfile>
